<svg width="147" height="442" viewBox="0 0 147 442" fill="none" xmlns="http://www.w3.org/2000/svg">
<mask id="path-1-outside-1_0_32" maskUnits="userSpaceOnUse" x="-1.00002" y="-6.42557e-06" width="148" height="442" fill="black">
<rect fill="white" x="-1.00002" y="-6.42557e-06" width="148" height="442"/>
<path d="M123.764 341.711L144.049 341.711L144.049 438.163L126.689 438.163L76.8524 391.894C71.3908 387.068 66.6444 383.253 62.6132 380.449C58.5821 377.644 54.941 375.655 51.69 374.482C48.3741 373.242 45.2207 372.623 42.2298 372.623C37.8735 372.623 34.0699 373.406 30.819 374.971C27.503 376.536 24.9348 378.818 23.1142 381.818C21.2937 384.753 20.3834 388.372 20.3834 392.676C20.3834 397.437 21.4888 401.513 23.6994 404.904C25.845 408.23 28.8359 410.773 32.672 412.534C36.5081 414.23 40.8969 415.077 45.8383 415.077L45.8383 441C37.4509 441 29.8112 439.044 22.9192 435.131C15.9621 431.218 10.403 425.609 6.24182 418.305C2.0806 411.001 -1.69041e-06 402.328 -2.1294e-06 392.285C-2.55699e-06 382.503 1.62547 374.221 4.87642 367.438C8.06234 360.656 12.6137 355.504 18.5304 351.983C24.4471 348.461 31.5017 346.7 39.694 346.7C44.2454 346.7 48.7317 347.45 53.153 348.95C57.5743 350.45 61.963 352.57 66.3193 355.309C70.6106 357.982 74.9668 361.178 79.3881 364.895C83.8094 368.612 88.3282 372.753 92.9446 377.318L123.764 405.1L123.764 341.711Z"/>
<path d="M60.8577 229.413L84.7522 229.413C95.6753 229.413 105.006 230.521 112.743 232.739C120.48 234.956 126.819 238.151 131.761 242.325C136.637 246.499 140.246 251.488 142.586 257.292C144.862 263.096 146 269.552 146 276.66C146 282.334 145.285 287.616 143.854 292.507C142.359 297.398 140.083 301.8 137.027 305.713C133.906 309.561 129.94 312.887 125.129 315.691C120.318 318.43 114.563 320.549 107.866 322.049C101.169 323.484 93.4647 324.201 84.7522 324.201L60.8577 324.201C49.9345 324.201 40.6368 323.093 32.9646 320.875C25.2924 318.593 19.018 315.365 14.1416 311.191C9.26519 307.017 5.72166 302.029 3.51102 296.225C1.23535 290.42 0.0975215 283.964 0.0975212 276.856C0.097521 271.117 0.812729 265.835 2.24315 261.009C3.67356 256.118 5.91671 251.748 8.9726 247.901C11.9635 243.988 15.8646 240.662 20.676 237.923C25.4224 235.184 31.1441 233.097 37.841 231.663C44.4729 230.163 52.1452 229.413 60.8577 229.413ZM88.2632 255.237L57.2492 255.237C51.7876 255.237 47.0412 255.564 43.01 256.216C38.9138 256.803 35.4353 257.683 32.5745 258.857C29.7136 260.031 27.4055 261.498 25.65 263.259C23.8294 265.02 22.4965 267.041 21.6513 269.324C20.806 271.606 20.3834 274.117 20.3834 276.856C20.3834 280.247 21.0661 283.28 22.4315 285.953C23.7319 288.627 25.8125 290.877 28.6733 292.703C31.5342 294.529 35.3378 295.931 40.0842 296.909C44.7655 297.822 50.4872 298.279 57.2492 298.279L88.2632 298.279C93.7248 298.279 98.5037 297.985 102.6 297.398C106.696 296.746 110.207 295.833 113.133 294.659C116.059 293.42 118.464 291.953 120.35 290.257C122.171 288.497 123.536 286.475 124.446 284.193C125.291 281.91 125.714 279.399 125.714 276.66C125.714 273.204 125.031 270.171 123.666 267.563C122.301 264.889 120.155 262.639 117.229 260.813C114.238 258.987 110.37 257.618 105.623 256.705C100.812 255.727 95.0252 255.237 88.2632 255.237Z"/>
<path d="M123.764 112.81L144.049 112.81L144.049 209.261L126.689 209.261L76.8524 162.992C71.3908 158.166 66.6444 154.351 62.6132 151.547C58.582 148.743 54.941 146.754 51.69 145.58C48.3741 144.341 45.2207 143.721 42.2298 143.721C37.8735 143.721 34.0699 144.504 30.819 146.069C27.503 147.634 24.9347 149.917 23.1142 152.916C21.2937 155.851 20.3834 159.47 20.3834 163.775C20.3834 168.535 21.4887 172.611 23.6994 176.002C25.845 179.328 28.8359 181.871 32.672 183.632C36.5081 185.328 40.8969 186.176 45.8383 186.176L45.8383 212.098C37.4509 212.098 29.8112 210.142 22.9192 206.229C15.9621 202.316 10.403 196.708 6.24181 189.404C2.08059 182.1 -1.1696e-05 173.426 -1.2135e-05 163.383C-1.25626e-05 153.601 1.62546 145.319 4.87641 138.537C8.06233 131.754 12.6137 126.602 18.5304 123.081C24.4471 119.559 31.5017 117.799 39.694 117.799C44.2454 117.799 48.7317 118.549 53.153 120.048C57.5742 121.548 61.963 123.668 66.3193 126.407C70.6105 129.081 74.9668 132.276 79.3881 135.993C83.8094 139.711 88.3282 143.852 92.9445 148.417L123.764 176.198L123.764 112.81Z"/>
<path d="M61.6379 66.5402L61.6379 51.9649C61.6379 46.813 60.7602 42.574 59.0047 39.2481C57.1841 35.857 54.7134 33.3462 51.5925 31.7158C48.4066 30.0203 44.733 29.1725 40.5718 29.1725C36.4756 29.1725 32.9321 29.9225 29.9412 31.4224C26.8853 32.9223 24.5446 35.2048 22.9192 38.2699C21.2287 41.2697 20.3834 45.1174 20.3834 49.8128C20.3834 53.5952 21.1311 57.0842 22.6266 60.2797C24.122 63.4099 26.2676 65.9207 29.0634 67.8119C31.7942 69.6379 35.0777 70.5509 38.9138 70.5509L38.9138 96.4735C31.2416 96.4735 24.5121 94.4519 18.7254 90.4086C12.8737 86.3001 8.2899 80.7569 4.97393 73.779C1.65797 66.8011 -1.66974e-05 59.008 -1.70737e-05 50.3997C-1.74842e-05 41.0089 1.56044 32.7919 4.68134 25.7487C7.73723 18.6404 12.256 13.1298 18.2378 9.21698C24.2195 5.23891 31.6317 3.24988 40.4743 3.24988C44.7005 3.24988 48.9267 4.26071 53.153 6.28235C57.3142 8.23877 61.0853 11.1408 64.4662 14.9884C67.7822 18.7709 70.4805 23.4337 72.5611 28.9769C74.5767 34.4549 75.5845 40.748 75.5845 47.8564L75.5845 66.5402L61.6379 66.5402ZM81.5337 66.5402L67.7822 66.5402L67.7822 47.8564C67.7822 39.835 68.725 32.8897 70.6105 27.0204C72.4311 21.086 75.0318 16.1949 78.4128 12.3473C81.7288 8.49962 85.5974 5.66279 90.0187 3.83679C94.44 1.94558 99.1864 0.999996 104.258 0.999995C110.89 0.999995 116.806 2.23905 122.008 4.71719C127.144 7.19533 131.501 10.6843 135.077 15.1841C138.653 19.6186 141.384 24.8358 143.269 30.8355C145.09 36.8352 146 43.324 146 50.3019C146 56.3668 145.187 62.2687 143.562 68.0075C141.871 73.6812 139.368 78.8005 136.052 83.3655C132.671 87.9305 128.445 91.5498 123.373 94.2236C118.237 96.8974 112.288 98.2343 105.526 98.2343L105.526 72.3117C109.427 72.3117 112.905 71.3661 115.961 69.4748C119.017 67.5184 121.423 64.8447 123.178 61.4535C124.869 57.9972 125.714 54.1169 125.714 49.8128C125.714 45.0522 124.869 40.9763 123.178 37.5851C121.423 34.1288 118.952 31.4876 115.766 29.6616C112.515 27.8356 108.647 26.9226 104.16 26.9226C98.8288 26.9226 94.505 27.9334 91.189 29.9551C87.8731 31.9767 85.4348 34.8787 83.8744 38.6612C82.3139 42.3784 81.5337 46.813 81.5337 51.9649L81.5337 66.5402Z"/>
</mask>
<path d="M123.764 341.711L144.049 341.711L144.049 438.163L126.689 438.163L76.8524 391.894C71.3908 387.068 66.6444 383.253 62.6132 380.449C58.5821 377.644 54.941 375.655 51.69 374.482C48.3741 373.242 45.2207 372.623 42.2298 372.623C37.8735 372.623 34.0699 373.406 30.819 374.971C27.503 376.536 24.9348 378.818 23.1142 381.818C21.2937 384.753 20.3834 388.372 20.3834 392.676C20.3834 397.437 21.4888 401.513 23.6994 404.904C25.845 408.23 28.8359 410.773 32.672 412.534C36.5081 414.23 40.8969 415.077 45.8383 415.077L45.8383 441C37.4509 441 29.8112 439.044 22.9192 435.131C15.9621 431.218 10.403 425.609 6.24182 418.305C2.0806 411.001 -1.69041e-06 402.328 -2.1294e-06 392.285C-2.55699e-06 382.503 1.62547 374.221 4.87642 367.438C8.06234 360.656 12.6137 355.504 18.5304 351.983C24.4471 348.461 31.5017 346.7 39.694 346.7C44.2454 346.7 48.7317 347.45 53.153 348.95C57.5743 350.45 61.963 352.57 66.3193 355.309C70.6106 357.982 74.9668 361.178 79.3881 364.895C83.8094 368.612 88.3282 372.753 92.9446 377.318L123.764 405.1L123.764 341.711Z" stroke="#E6E6E6" stroke-width="2" mask="url(#path-1-outside-1_0_32)"/>
<path d="M60.8577 229.413L84.7522 229.413C95.6753 229.413 105.006 230.521 112.743 232.739C120.48 234.956 126.819 238.151 131.761 242.325C136.637 246.499 140.246 251.488 142.586 257.292C144.862 263.096 146 269.552 146 276.66C146 282.334 145.285 287.616 143.854 292.507C142.359 297.398 140.083 301.8 137.027 305.713C133.906 309.561 129.94 312.887 125.129 315.691C120.318 318.43 114.563 320.549 107.866 322.049C101.169 323.484 93.4647 324.201 84.7522 324.201L60.8577 324.201C49.9345 324.201 40.6368 323.093 32.9646 320.875C25.2924 318.593 19.018 315.365 14.1416 311.191C9.26519 307.017 5.72166 302.029 3.51102 296.225C1.23535 290.42 0.0975215 283.964 0.0975212 276.856C0.097521 271.117 0.812729 265.835 2.24315 261.009C3.67356 256.118 5.91671 251.748 8.9726 247.901C11.9635 243.988 15.8646 240.662 20.676 237.923C25.4224 235.184 31.1441 233.097 37.841 231.663C44.4729 230.163 52.1452 229.413 60.8577 229.413ZM88.2632 255.237L57.2492 255.237C51.7876 255.237 47.0412 255.564 43.01 256.216C38.9138 256.803 35.4353 257.683 32.5745 258.857C29.7136 260.031 27.4055 261.498 25.65 263.259C23.8294 265.02 22.4965 267.041 21.6513 269.324C20.806 271.606 20.3834 274.117 20.3834 276.856C20.3834 280.247 21.0661 283.28 22.4315 285.953C23.7319 288.627 25.8125 290.877 28.6733 292.703C31.5342 294.529 35.3378 295.931 40.0842 296.909C44.7655 297.822 50.4872 298.279 57.2492 298.279L88.2632 298.279C93.7248 298.279 98.5037 297.985 102.6 297.398C106.696 296.746 110.207 295.833 113.133 294.659C116.059 293.42 118.464 291.953 120.35 290.257C122.171 288.497 123.536 286.475 124.446 284.193C125.291 281.91 125.714 279.399 125.714 276.66C125.714 273.204 125.031 270.171 123.666 267.563C122.301 264.889 120.155 262.639 117.229 260.813C114.238 258.987 110.37 257.618 105.623 256.705C100.812 255.727 95.0252 255.237 88.2632 255.237Z" stroke="#E6E6E6" stroke-width="2" mask="url(#path-1-outside-1_0_32)"/>
<path d="M123.764 112.81L144.049 112.81L144.049 209.261L126.689 209.261L76.8524 162.992C71.3908 158.166 66.6444 154.351 62.6132 151.547C58.582 148.743 54.941 146.754 51.69 145.58C48.3741 144.341 45.2207 143.721 42.2298 143.721C37.8735 143.721 34.0699 144.504 30.819 146.069C27.503 147.634 24.9347 149.917 23.1142 152.916C21.2937 155.851 20.3834 159.47 20.3834 163.775C20.3834 168.535 21.4887 172.611 23.6994 176.002C25.845 179.328 28.8359 181.871 32.672 183.632C36.5081 185.328 40.8969 186.176 45.8383 186.176L45.8383 212.098C37.4509 212.098 29.8112 210.142 22.9192 206.229C15.9621 202.316 10.403 196.708 6.24181 189.404C2.08059 182.1 -1.1696e-05 173.426 -1.2135e-05 163.383C-1.25626e-05 153.601 1.62546 145.319 4.87641 138.537C8.06233 131.754 12.6137 126.602 18.5304 123.081C24.4471 119.559 31.5017 117.799 39.694 117.799C44.2454 117.799 48.7317 118.549 53.153 120.048C57.5742 121.548 61.963 123.668 66.3193 126.407C70.6105 129.081 74.9668 132.276 79.3881 135.993C83.8094 139.711 88.3282 143.852 92.9445 148.417L123.764 176.198L123.764 112.81Z" stroke="#E6E6E6" stroke-width="2" mask="url(#path-1-outside-1_0_32)"/>
<path d="M61.6379 66.5402L61.6379 51.9649C61.6379 46.813 60.7602 42.574 59.0047 39.2481C57.1841 35.857 54.7134 33.3462 51.5925 31.7158C48.4066 30.0203 44.733 29.1725 40.5718 29.1725C36.4756 29.1725 32.9321 29.9225 29.9412 31.4224C26.8853 32.9223 24.5446 35.2048 22.9192 38.2699C21.2287 41.2697 20.3834 45.1174 20.3834 49.8128C20.3834 53.5952 21.1311 57.0842 22.6266 60.2797C24.122 63.4099 26.2676 65.9207 29.0634 67.8119C31.7942 69.6379 35.0777 70.5509 38.9138 70.5509L38.9138 96.4735C31.2416 96.4735 24.5121 94.4519 18.7254 90.4086C12.8737 86.3001 8.2899 80.7569 4.97393 73.779C1.65797 66.8011 -1.66974e-05 59.008 -1.70737e-05 50.3997C-1.74842e-05 41.0089 1.56044 32.7919 4.68134 25.7487C7.73723 18.6404 12.256 13.1298 18.2378 9.21698C24.2195 5.23891 31.6317 3.24988 40.4743 3.24988C44.7005 3.24988 48.9267 4.26071 53.153 6.28235C57.3142 8.23877 61.0853 11.1408 64.4662 14.9884C67.7822 18.7709 70.4805 23.4337 72.5611 28.9769C74.5767 34.4549 75.5845 40.748 75.5845 47.8564L75.5845 66.5402L61.6379 66.5402ZM81.5337 66.5402L67.7822 66.5402L67.7822 47.8564C67.7822 39.835 68.725 32.8897 70.6105 27.0204C72.4311 21.086 75.0318 16.1949 78.4128 12.3473C81.7288 8.49962 85.5974 5.66279 90.0187 3.83679C94.44 1.94558 99.1864 0.999996 104.258 0.999995C110.89 0.999995 116.806 2.23905 122.008 4.71719C127.144 7.19533 131.501 10.6843 135.077 15.1841C138.653 19.6186 141.384 24.8358 143.269 30.8355C145.09 36.8352 146 43.324 146 50.3019C146 56.3668 145.187 62.2687 143.562 68.0075C141.871 73.6812 139.368 78.8005 136.052 83.3655C132.671 87.9305 128.445 91.5498 123.373 94.2236C118.237 96.8974 112.288 98.2343 105.526 98.2343L105.526 72.3117C109.427 72.3117 112.905 71.3661 115.961 69.4748C119.017 67.5184 121.423 64.8447 123.178 61.4535C124.869 57.9972 125.714 54.1169 125.714 49.8128C125.714 45.0522 124.869 40.9763 123.178 37.5851C121.423 34.1288 118.952 31.4876 115.766 29.6616C112.515 27.8356 108.647 26.9226 104.16 26.9226C98.8288 26.9226 94.505 27.9334 91.189 29.9551C87.8731 31.9767 85.4348 34.8787 83.8744 38.6612C82.3139 42.3784 81.5337 46.813 81.5337 51.9649L81.5337 66.5402Z" stroke="#E6E6E6" stroke-width="2" mask="url(#path-1-outside-1_0_32)"/>
</svg>
