<svg xmlns="http://www.w3.org/2000/svg" width="294" height="294" viewBox="0 0 294 294" fill="none"><path opacity="0.2" d="M168 95.2353L168.156 95.9259L168.754 95.5479L249.34 44.6599L198.452 125.246L198.074 125.844L198.765 126L291.731 147L198.765 168L198.074 168.156L198.452 168.754L249.34 249.34L168.754 198.452L168.156 198.074L168 198.765L147 291.731L126 198.765L125.844 198.074L125.246 198.452L44.6599 249.34L95.5479 168.754L95.9259 168.156L95.2353 168L2.26931 147L95.2353 126L95.9259 125.844L95.5479 125.246L44.6599 44.6599L125.246 95.5479L125.844 95.9259L126 95.2353L147 2.26931L168 95.2353Z" fill="white" stroke="#111111"></path><path d="M102.123 147.1C102.123 147.744 102.268 148.309 102.557 148.794C102.856 149.27 103.243 149.639 103.719 149.9C104.195 150.152 104.713 150.278 105.273 150.278C105.74 150.278 106.155 150.217 106.519 150.096C106.883 149.975 107.21 149.811 107.499 149.606C107.798 149.401 108.055 149.177 108.269 148.934V151.188C107.868 151.505 107.429 151.753 106.953 151.93C106.487 152.107 105.894 152.196 105.175 152.196C104.429 152.196 103.733 152.075 103.089 151.832C102.455 151.589 101.899 151.239 101.423 150.782C100.957 150.325 100.593 149.788 100.331 149.172C100.079 148.547 99.9532 147.856 99.9532 147.1C99.9532 146.344 100.079 145.658 100.331 145.042C100.593 144.417 100.957 143.875 101.423 143.418C101.899 142.961 102.455 142.611 103.089 142.368C103.733 142.125 104.429 142.004 105.175 142.004C105.894 142.004 106.487 142.093 106.953 142.27C107.429 142.447 107.868 142.695 108.269 143.012V145.266C108.055 145.023 107.798 144.799 107.499 144.594C107.21 144.389 106.883 144.225 106.519 144.104C106.155 143.983 105.74 143.922 105.273 143.922C104.713 143.922 104.195 144.053 103.719 144.314C103.243 144.566 102.856 144.93 102.557 145.406C102.268 145.882 102.123 146.447 102.123 147.1Z" fill="#111111"></path><path d="M111.815 147.1C111.815 147.725 111.946 148.281 112.207 148.766C112.469 149.251 112.828 149.634 113.285 149.914C113.743 150.194 114.275 150.334 114.881 150.334C115.488 150.334 116.02 150.194 116.477 149.914C116.935 149.634 117.289 149.251 117.541 148.766C117.803 148.281 117.933 147.725 117.933 147.1C117.933 146.475 117.807 145.919 117.555 145.434C117.303 144.949 116.949 144.566 116.491 144.286C116.034 144.006 115.497 143.866 114.881 143.866C114.275 143.866 113.743 144.006 113.285 144.286C112.828 144.566 112.469 144.949 112.207 145.434C111.946 145.919 111.815 146.475 111.815 147.1ZM109.701 147.1C109.701 146.353 109.832 145.672 110.093 145.056C110.355 144.431 110.719 143.889 111.185 143.432C111.652 142.975 112.198 142.625 112.823 142.382C113.458 142.13 114.144 142.004 114.881 142.004C115.628 142.004 116.314 142.13 116.939 142.382C117.565 142.625 118.111 142.975 118.577 143.432C119.053 143.889 119.417 144.431 119.669 145.056C119.931 145.672 120.061 146.353 120.061 147.1C120.061 147.837 119.931 148.523 119.669 149.158C119.417 149.783 119.058 150.329 118.591 150.796C118.134 151.263 117.588 151.627 116.953 151.888C116.328 152.14 115.637 152.266 114.881 152.266C114.125 152.266 113.43 152.14 112.795 151.888C112.17 151.627 111.624 151.263 111.157 150.796C110.691 150.329 110.331 149.783 110.079 149.158C109.827 148.523 109.701 147.837 109.701 147.1Z" fill="#111111"></path><path d="M121.609 142.2H123.611V150.25H127.517V152H121.609V142.2Z" fill="#111111"></path><path d="M128.664 142.2H130.666V150.25H134.572V152H128.664V142.2Z" fill="#111111"></path><path d="M137.006 152V150.306H141.948V152H137.006ZM137.006 143.894V142.2H141.948V143.894H137.006ZM137.006 147.632V145.966H141.668V147.632H137.006ZM135.718 142.2H137.65V152H135.718V142.2Z" fill="#111111"></path><path d="M145.531 147.1C145.531 147.744 145.676 148.309 145.965 148.794C146.264 149.27 146.651 149.639 147.127 149.9C147.603 150.152 148.121 150.278 148.681 150.278C149.148 150.278 149.563 150.217 149.927 150.096C150.291 149.975 150.618 149.811 150.907 149.606C151.206 149.401 151.463 149.177 151.677 148.934V151.188C151.276 151.505 150.837 151.753 150.361 151.93C149.895 152.107 149.302 152.196 148.583 152.196C147.837 152.196 147.141 152.075 146.497 151.832C145.863 151.589 145.307 151.239 144.831 150.782C144.365 150.325 144.001 149.788 143.739 149.172C143.487 148.547 143.361 147.856 143.361 147.1C143.361 146.344 143.487 145.658 143.739 145.042C144.001 144.417 144.365 143.875 144.831 143.418C145.307 142.961 145.863 142.611 146.497 142.368C147.141 142.125 147.837 142.004 148.583 142.004C149.302 142.004 149.895 142.093 150.361 142.27C150.837 142.447 151.276 142.695 151.677 143.012V145.266C151.463 145.023 151.206 144.799 150.907 144.594C150.618 144.389 150.291 144.225 149.927 144.104C149.563 143.983 149.148 143.922 148.681 143.922C148.121 143.922 147.603 144.053 147.127 144.314C146.651 144.566 146.264 144.93 145.965 145.406C145.676 145.882 145.531 146.447 145.531 147.1Z" fill="#111111"></path><path d="M152.266 144.006V142.2H159.546V144.006H156.9V152H154.898V144.006H152.266Z" fill="#111111"></path><path d="M160.683 142.2H162.713V152H160.683V142.2Z" fill="#111111"></path><path d="M166.38 147.1C166.38 147.725 166.51 148.281 166.772 148.766C167.033 149.251 167.392 149.634 167.85 149.914C168.307 150.194 168.839 150.334 169.446 150.334C170.052 150.334 170.584 150.194 171.042 149.914C171.499 149.634 171.854 149.251 172.106 148.766C172.367 148.281 172.498 147.725 172.498 147.1C172.498 146.475 172.372 145.919 172.12 145.434C171.868 144.949 171.513 144.566 171.056 144.286C170.598 144.006 170.062 143.866 169.446 143.866C168.839 143.866 168.307 144.006 167.85 144.286C167.392 144.566 167.033 144.949 166.772 145.434C166.51 145.919 166.38 146.475 166.38 147.1ZM164.266 147.1C164.266 146.353 164.396 145.672 164.658 145.056C164.919 144.431 165.283 143.889 165.75 143.432C166.216 142.975 166.762 142.625 167.388 142.382C168.022 142.13 168.708 142.004 169.446 142.004C170.192 142.004 170.878 142.13 171.504 142.382C172.129 142.625 172.675 142.975 173.142 143.432C173.618 143.889 173.982 144.431 174.234 145.056C174.495 145.672 174.626 146.353 174.626 147.1C174.626 147.837 174.495 148.523 174.234 149.158C173.982 149.783 173.622 150.329 173.156 150.796C172.698 151.263 172.152 151.627 171.518 151.888C170.892 152.14 170.202 152.266 169.446 152.266C168.69 152.266 167.994 152.14 167.36 151.888C166.734 151.627 166.188 151.263 165.722 150.796C165.255 150.329 164.896 149.783 164.644 149.158C164.392 148.523 164.266 147.837 164.266 147.1Z" fill="#111111"></path><path d="M183.145 142.2H185.077V152.49L178.105 145.924V152H176.173V141.71L183.145 148.276V142.2Z" fill="#111111"></path><path d="M188.061 148.71C188.266 149.074 188.49 149.391 188.733 149.662C188.985 149.933 189.26 150.143 189.559 150.292C189.857 150.441 190.179 150.516 190.525 150.516C190.926 150.516 191.253 150.413 191.505 150.208C191.757 150.003 191.883 149.723 191.883 149.368C191.883 149.06 191.803 148.813 191.645 148.626C191.495 148.439 191.267 148.276 190.959 148.136C190.66 147.987 190.291 147.828 189.853 147.66C189.619 147.576 189.349 147.464 189.041 147.324C188.742 147.175 188.457 146.988 188.187 146.764C187.916 146.531 187.692 146.251 187.515 145.924C187.337 145.588 187.249 145.187 187.249 144.72C187.249 144.16 187.389 143.679 187.669 143.278C187.958 142.867 188.345 142.555 188.831 142.34C189.325 142.116 189.876 142.004 190.483 142.004C191.108 142.004 191.645 142.111 192.093 142.326C192.55 142.531 192.928 142.797 193.227 143.124C193.535 143.441 193.773 143.773 193.941 144.118L192.373 144.986C192.242 144.753 192.083 144.543 191.897 144.356C191.719 144.16 191.514 144.006 191.281 143.894C191.047 143.773 190.781 143.712 190.483 143.712C190.091 143.712 189.797 143.805 189.601 143.992C189.405 144.169 189.307 144.379 189.307 144.622C189.307 144.865 189.386 145.079 189.545 145.266C189.703 145.443 189.946 145.616 190.273 145.784C190.599 145.943 191.01 146.106 191.505 146.274C191.822 146.386 192.125 146.526 192.415 146.694C192.713 146.862 192.979 147.067 193.213 147.31C193.455 147.543 193.642 147.823 193.773 148.15C193.913 148.467 193.983 148.836 193.983 149.256C193.983 149.732 193.889 150.157 193.703 150.53C193.516 150.903 193.259 151.221 192.933 151.482C192.606 151.734 192.237 151.925 191.827 152.056C191.425 152.196 191.001 152.266 190.553 152.266C189.955 152.266 189.395 152.154 188.873 151.93C188.359 151.697 187.911 151.384 187.529 150.992C187.146 150.6 186.847 150.175 186.633 149.718L188.061 148.71Z" fill="#111111"></path></svg>