<svg xmlns="http://www.w3.org/2000/svg" width="25" height="25" viewBox="0 0 25 25" fill="none">
<path d="M5.024 21.6C5.568 21.6 6.112 21.344 6.592 20.864C7.296 20.16 7.808 19.232 8.384 18.112C8.896 17.12 9.504 16.064 10.432 14.848C10.816 15.104 11.264 15.296 11.744 15.392C11.52 16.896 11.2 18.048 10.848 19.136C10.464 20.352 10.176 21.344 10.176 22.336C10.176 23.712 10.976 24.512 12.256 24.512C13.536 24.512 14.336 23.712 14.336 22.336C14.336 21.344 14.048 20.352 13.664 19.136C13.312 18.048 13.024 16.896 12.8 15.392C13.28 15.328 13.728 15.136 14.112 14.848C15.008 16.096 15.616 17.12 16.128 18.112C16.704 19.232 17.216 20.16 17.92 20.864C18.4 21.344 18.944 21.6 19.488 21.6C20 21.6 20.48 21.376 20.928 20.928C21.376 20.48 21.6 20 21.6 19.488C21.6 18.944 21.344 18.4 20.864 17.92C20.16 17.216 19.232 16.704 18.112 16.128C17.12 15.616 16.096 15.008 14.848 14.112C15.136 13.728 15.296 13.28 15.392 12.8C16.896 13.024 18.048 13.312 19.136 13.664C20.352 14.048 21.344 14.336 22.336 14.336C23.712 14.336 24.512 13.536 24.512 12.256C24.512 10.976 23.712 10.176 22.336 10.176C21.344 10.176 20.352 10.464 19.136 10.848C18.048 11.2 16.896 11.52 15.392 11.744C15.296 11.232 15.104 10.816 14.848 10.432C16.064 9.504 17.12 8.896 18.112 8.384C19.232 7.808 20.16 7.296 20.864 6.592C21.344 6.112 21.6 5.568 21.6 5.024C21.6 4.512 21.376 4.032 20.928 3.584C20.48 3.136 20 2.912 19.488 2.912C18.944 2.912 18.4 3.168 17.92 3.648C17.216 4.352 16.704 5.28 16.128 6.4C15.616 7.392 15.008 8.448 14.08 9.664C13.728 9.408 13.28 9.216 12.8 9.12C13.024 7.616 13.312 6.464 13.664 5.376C14.048 4.16 14.336 3.168 14.336 2.176C14.336 0.799999 13.536 0 12.256 0C10.976 0 10.176 0.799999 10.176 2.176C10.176 3.168 10.464 4.16 10.848 5.376C11.2 6.464 11.52 7.616 11.744 9.152C11.264 9.216 10.816 9.408 10.432 9.696C9.504 8.448 8.896 7.392 8.384 6.4C7.808 5.28 7.296 4.352 6.592 3.648C6.112 3.168 5.568 2.912 5.024 2.912C4.512 2.912 4.032 3.136 3.584 3.584C3.136 4.032 2.912 4.512 2.912 5.024C2.912 5.568 3.168 6.112 3.648 6.592C4.352 7.296 5.28 7.808 6.4 8.384C7.392 8.896 8.448 9.504 9.696 10.432C9.408 10.816 9.216 11.264 9.152 11.744C7.616 11.52 6.464 11.2 5.376 10.848C4.16 10.464 3.168 10.176 2.176 10.176C0.8 10.176 0 10.976 0 12.256C0 13.536 0.8 14.336 2.176 14.336C3.168 14.336 4.16 14.048 5.376 13.664C6.464 13.312 7.616 13.024 9.12 12.8C9.216 13.28 9.408 13.728 9.664 14.08C8.448 15.008 7.392 15.616 6.4 16.128C5.28 16.704 4.352 17.216 3.648 17.92C3.168 18.4 2.912 18.944 2.912 19.488C2.912 20 3.136 20.48 3.584 20.928C4.032 21.376 4.512 21.6 5.024 21.6Z" fill="#111111"></path>
</svg>