<svg width="115" height="30" viewBox="0 0 115 30" fill="none" xmlns="http://www.w3.org/2000/svg">
<path d="M22.9606 0H2.53242L1.64607 9.0127H2.32138C3.79862 3.13117 4.34731 0.973202 10.9316 0.973202H16.8828L0 28.9845V30H21.6522L22.5807 20.5219H21.9054C20.597 26.6573 19.5418 29.0691 12.8731 29.0691H5.44469L22.9606 0Z" fill="#111111"/>
<path d="M31.7696 0L21.6822 29.0691H18.8965V30H26.7892V29.0691H22.9906L25.9028 20.3103H34.7241L37.6364 29.0691H33.7533V30H44.9382V29.0691H42.8278L32.9092 0H31.7696ZM26.1983 19.3794L30.2502 6.89704L34.3864 19.3794H26.1983Z" fill="#111111"/>
<path d="M42.3879 0V0.973202H45.8911V29.0691H42.3457V30H50.7449V29.0691H47.1995V2.07334L65.1797 30H66.1926V0.973202H69.5692V0H61.5077V0.973202H64.8842V20.5219L51.6735 0H42.3879Z" fill="#111111"/>
<path d="M67.3082 0V0.973202H70.8113V29.0691H67.266V30H75.6651V29.0691H72.1198V2.07334L90.0999 30H91.1129V0.973202H94.4894V0H86.4279V0.973202H89.8045V20.5219L76.5937 0H67.3082Z" fill="#111111"/>
<path d="M101.831 0L91.744 29.0691H88.9583V30H96.851V29.0691H93.0524L95.9647 20.3103H104.786L107.698 29.0691H103.815V30H115V29.0691H112.89L102.971 0H101.831ZM96.2601 19.3794L100.312 6.89704L104.448 19.3794H96.2601Z" fill="#111111"/>
</svg>
