<svg width="294" height="294" viewBox="0 0 294 294" fill="none" xmlns="http://www.w3.org/2000/svg">
<path d="M168 95.2353L168.156 95.9259L168.754 95.5479L249.34 44.6599L198.452 125.246L198.074 125.844L198.765 126L291.731 147L198.765 168L198.074 168.156L198.452 168.754L249.34 249.34L168.754 198.452L168.156 198.074L168 198.765L147 291.731L126 198.765L125.844 198.074L125.246 198.452L44.6599 249.34L95.5479 168.754L95.9259 168.156L95.2353 168L2.26931 147L95.2353 126L95.9259 125.844L95.5479 125.246L44.6599 44.6599L125.246 95.5479L125.844 95.9259L126 95.2353L147 2.26931L168 95.2353Z" fill="white" stroke="black"/>
<path d="M154.516 152.598C154.809 152.832 154.809 153.301 154.516 153.594L147.719 160.391C147.426 160.684 147.016 160.684 146.723 160.391L139.926 153.594C139.633 153.301 139.633 152.832 139.926 152.598L140.336 152.129C140.629 151.895 141.039 151.895 141.332 152.129L146.254 157.051L146.254 135.078C146.254 134.668 146.547 134.375 146.957 134.375L147.543 134.375C147.895 134.375 148.246 134.668 148.246 135.078L148.246 157.051L153.109 152.129C153.402 151.895 153.812 151.895 154.105 152.129L154.516 152.598Z" fill="#111111"/>
</svg>
