<?xml version="1.0" encoding="UTF-8"?>
<svg version="1.1" xmlns="http://www.w3.org/2000/svg" width="3264" height="1275">
<path d="M0 0 C34.03015536 -0.06869425 68.0602912 -0.12166049 102.09050069 -0.15319599 C106.12389185 -0.15694733 110.15728287 -0.16083037 114.19067383 -0.16479492 C114.99352343 -0.16558185 115.79637303 -0.16636878 116.62355141 -0.16717956 C129.55966734 -0.18017198 142.49574256 -0.20379113 155.43183448 -0.23145839 C168.74238804 -0.25968542 182.05292054 -0.27621245 195.3635028 -0.28226548 C203.55214772 -0.28634642 211.74067752 -0.29915144 219.92928693 -0.3237494 C225.57302807 -0.33982119 231.21671122 -0.34435297 236.86047348 -0.34050413 C240.09850498 -0.33861518 243.33630078 -0.34287715 246.57430458 -0.35761642 C305.27677219 -0.61133832 365.93959061 11.25368047 415 45 C416.02867187 45.69609375 417.05734375 46.3921875 418.1171875 47.109375 C441.68869263 63.64359019 461.77189101 84.95609082 476 110 C476.98033203 111.68222656 476.98033203 111.68222656 477.98046875 113.3984375 C502.74086178 156.98511243 508.84862531 213.66905283 496.15234375 261.93359375 C487.36924879 293.52972312 472.41622127 320.99426486 450 345 C447.80740769 347.49021223 445.61695529 349.98215837 443.43359375 352.48046875 C402.78692046 394.56249808 339.68495275 417.73636467 282 419 C282 420.32 282 421.64 282 423 C283.31484375 423.07734375 283.31484375 423.07734375 284.65625 423.15625 C310.054824 425.42766719 335.51265759 436.63925748 355 453 C356.16004562 453.94675015 357.3202082 454.89335701 358.48046875 455.83984375 C375.86988616 470.2068426 387.66963849 487.59611676 399.4765625 506.55761719 C401.92685011 510.48593084 404.40120056 514.39896652 406.875 518.3125 C407.61061157 519.47809448 407.61061157 519.47809448 408.36108398 520.66723633 C411.03412807 524.9004565 413.71656915 529.12747505 416.41015625 533.34765625 C422.16458306 542.36367231 427.88671106 551.3952898 433.5 560.5 C463.65477736 610.94133322 463.65477736 610.94133322 505 652 C506.04220703 652.76570312 506.04220703 652.76570312 507.10546875 653.546875 C514.37034849 658.47713271 522.23055631 660.93269372 531.015625 659.75390625 C541.20500756 657.17988683 548.88077208 651.77529594 556.328125 644.5703125 C559.09860316 641.90514492 561.96925649 639.44212628 564.9375 637 C565.81277344 636.278125 566.68804688 635.55625 567.58984375 634.8125 C569.68141583 633.23958356 571.61848516 632.06090684 574 631 C579.22321429 635.82142857 579.22321429 635.82142857 580 640 C579.16339844 640.71542969 578.32679688 641.43085937 577.46484375 642.16796875 C576.63388184 642.8794104 576.63388184 642.8794104 575.78613281 643.60522461 C574.53225105 644.67844274 573.27767055 645.75084495 572.02246094 646.82250977 C568.77691028 649.59852035 565.54904364 652.38985126 562.36328125 655.234375 C538.28109929 676.66146779 509.9734009 695.89144195 476.41796875 695.25 C449.47936982 693.27963391 427.24955555 678.05542397 409.625 658.34375 C407.36504141 655.59951457 405.17559994 652.81154454 403 650 C402.08366637 648.84765621 401.16561657 647.69667556 400.24609375 646.546875 C394.91422246 639.86021376 389.77975339 633.09657709 385 626 C384.26523438 624.9171875 383.53046875 623.834375 382.7734375 622.71875 C377.63701827 615.10758612 372.69379801 607.38543756 367.81152344 599.609375 C361.93736113 590.27305638 355.88636741 581.05311941 349.84619141 571.82373047 C346.9730015 567.42921653 344.11069658 563.02765359 341.25 558.625 C340.71785889 557.80612305 340.18571777 556.98724609 339.63745117 556.14355469 C334.86317834 548.79398769 330.10108126 541.43657018 325.34277344 534.07666016 C323.9815203 531.97142031 322.61976305 529.86650748 321.2578125 527.76171875 C320.80317627 527.05909912 320.34854004 526.35647949 319.88012695 525.63256836 C318.95955317 524.21010029 318.03881731 522.7877371 317.11791992 521.36547852 C314.85934085 517.87669127 312.60381533 514.38601672 310.35546875 510.890625 C279.1304951 458.04233001 279.1304951 458.04233001 229.1875 426.1875 C219.71012558 424.18672096 209.87367237 424.34350089 200.22387695 424.15771484 C198 424 198 424 196 423 C196 417.39 196 411.78 196 406 C197.51126465 405.98018066 199.0225293 405.96036133 200.57958984 405.93994141 C206.27163315 405.8629578 211.96345109 405.77439651 217.65527344 405.68261719 C220.1028188 405.64470562 222.55041276 405.6097925 224.99804688 405.578125 C243.23889512 405.33929229 261.18123754 404.9831988 278.9375 400.375 C279.9469165 400.11630127 280.95633301 399.85760254 281.99633789 399.59106445 C325.63168625 387.90750819 364.15693268 357.44927614 386.89770508 318.58276367 C415.01072141 269.13949207 422.60160816 214.28754946 409 159 C408.81066895 158.22221191 408.62133789 157.44442383 408.42626953 156.64306641 C400.87419083 126.48190999 384.30464265 95.23216898 361.6640625 73.62890625 C360 72 360 72 358 69.4375 C355.03887582 65.82862991 351.59527704 62.96422197 348 60 C347.10667969 59.2575 346.21335937 58.515 345.29296875 57.75 C315.75163926 34.08659872 279.14886194 19.74339539 241.13427734 19.88647461 C240.0989386 19.88632858 239.06359985 19.88618256 237.99688721 19.8860321 C234.60988188 19.88672303 231.22293309 19.89447666 227.8359375 19.90234375 C225.47368398 19.90421085 223.11143007 19.90563337 220.74917603 19.90663147 C214.55803339 19.91043367 208.36691454 19.92024417 202.17578125 19.93133545 C195.84765952 19.94159914 189.51953392 19.94613968 183.19140625 19.95117188 C170.79426043 19.96186865 158.3971322 19.97891725 146 20 C146.71772583 21.10190674 146.71772583 21.10190674 147.44995117 22.22607422 C148.07877197 23.2007666 148.70759277 24.17545898 149.35546875 25.1796875 C150.28975708 26.62190674 150.28975708 26.62190674 151.24291992 28.09326172 C158.83249662 40.64870152 160.15824043 54.83519599 160.13307858 69.19445515 C160.1353216 70.18725482 160.13756463 71.18005449 160.13987562 72.202939 C160.14618707 75.52611724 160.14545296 78.84925597 160.14476013 82.17243958 C160.14789531 84.58053877 160.15147045 86.98863742 160.15544754 89.39673537 C160.16311216 94.63068773 160.16773097 99.86463362 160.16966438 105.09859085 C160.17256925 112.88189107 160.18119885 120.66517759 160.1910775 128.44847171 C160.20757884 141.54538093 160.21977199 154.64229069 160.22979546 167.73920631 C160.24422213 186.45345505 160.26698295 205.16768865 160.29146057 223.88192658 C160.30125024 231.39447542 160.31077134 238.9070246 160.32029057 246.41957378 C160.32134933 247.25418868 160.3224081 248.08880357 160.32349895 248.94870983 C160.34864306 268.80963566 160.37114226 288.67056426 160.39282227 308.53149414 C160.3937727 309.40036719 160.39472314 310.26924024 160.39570238 311.16444277 C160.41785477 331.43642964 160.43873188 351.70841733 160.45739746 371.98040771 C160.45820121 372.85232592 160.45900496 373.72424412 160.45983307 374.62258408 C160.46388389 379.01926548 160.46792547 383.41594688 160.47196633 387.81262829 C160.47276532 388.68158384 160.47356431 389.55053939 160.47438752 390.44582692 C160.47599983 392.19973078 160.47761065 393.95363465 160.47921998 395.70753851 C160.50585565 424.69061266 160.53922293 453.67367302 160.57999813 482.65673083 C160.58574793 486.75036304 160.59140656 490.84399537 160.59700203 494.93762779 C160.59810383 495.74326009 160.59920564 496.54889239 160.60034083 497.3789378 C160.61783895 510.33887515 160.6280108 523.29880843 160.63525448 536.25875516 C160.64264978 549.28476989 160.65705946 562.31076128 160.67868023 575.33676032 C160.69129157 583.07277047 160.69834657 590.80873938 160.69743004 598.54476 C160.69735216 604.3244327 160.70764365 610.1040502 160.72192169 615.88370355 C160.72607441 618.2194298 160.72687269 620.55516496 160.72395759 622.89089308 C159.69895993 646.18463167 159.69895993 646.18463167 169.3125 666.375 C182.03576445 674.06813664 197.6665441 673.30260712 212.09375 673.4140625 C213.66272932 673.43283872 215.23169924 673.45241652 216.80065918 673.4727478 C220.87089404 673.52339526 224.94116141 673.56337475 229.01153564 673.60089111 C233.18875719 673.64136112 237.36585151 673.69225387 241.54296875 673.7421875 C249.69522457 673.8381453 257.84754505 673.92279799 266 674 C266 677.3 266 680.6 266 684 C178.22 684 90.44 684 0 684 C0 680.7 0 677.4 0 674 C1.40580322 673.98018066 2.81160645 673.96036133 4.26000977 673.93994141 C9.54386411 673.86308389 14.82747134 673.77449955 20.11108398 673.68261719 C22.38512241 673.64465489 24.65921422 673.6097491 26.93334961 673.578125 C53.28347889 674.35982547 53.28347889 674.35982547 76.4375 663.875 C81.93286 653.76353759 82.15357594 641.88582621 82.12863445 630.64772034 C82.13038749 629.63784654 82.13214053 628.62797274 82.13394669 627.5874967 C82.1385957 624.20618516 82.136144 620.82491683 82.13371277 617.44360352 C82.1355813 614.99369522 82.13788217 612.54378722 82.14057809 610.0938797 C82.14541974 604.76843963 82.14715103 599.44301207 82.14612198 594.11757088 C82.1445954 586.19796999 82.1487625 578.27837913 82.1539966 570.3587802 C82.16366379 555.3891075 82.16648063 540.41943822 82.16705366 525.44976276 C82.16751341 513.88642979 82.1695728 502.32309816 82.17275429 490.75976562 C82.17365185 487.42984073 82.17454167 484.09991582 82.17542917 480.76999092 C82.17565021 479.94212588 82.17587126 479.11426084 82.17609901 478.26130898 C82.18225278 454.976381 82.18619962 431.69145349 82.18575573 408.40652466 C82.18574015 407.52874566 82.18572457 406.65096666 82.18570852 405.7465883 C82.18562542 401.29777428 82.18552637 396.84896027 82.18542381 392.40014625 C82.18540387 391.51661856 82.18538392 390.63309087 82.18536337 389.72278962 C82.18532294 387.93608025 82.18528114 386.14937088 82.18523798 384.36266151 C82.18462546 356.57493968 82.19212772 328.78723006 82.20581055 300.99951172 C82.22118233 269.76903305 82.22977608 238.53856241 82.22884732 207.30807972 C82.2287727 203.97563998 82.22872399 200.64320024 82.22869301 197.3107605 C82.22867553 196.07999574 82.22867553 196.07999574 82.22865769 194.82436704 C82.22862696 181.63853151 82.23500419 168.45270661 82.24362527 155.26687423 C82.25211614 142.00553769 82.25308051 128.74421663 82.24651595 115.48287886 C82.24282966 107.61238404 82.24462502 99.74193638 82.25445829 91.87144659 C82.26119149 85.98279768 82.25737983 80.09418531 82.24958507 74.20553672 C82.24805191 71.83203281 82.24985928 69.45852374 82.25544515 67.08502591 C83.71594921 41.05141183 83.71594921 41.05141183 74.27734375 18.203125 C64.35226987 9.91578697 49.55913648 10.8843406 37.3046875 10.68359375 C36.23123077 10.66281265 35.15777405 10.64203156 34.05178833 10.62062073 C30.65958375 10.55580872 27.26730907 10.49656166 23.875 10.4375 C21.5598889 10.3942496 19.24478461 10.35063336 16.9296875 10.30664062 C11.28652816 10.20019852 5.64329909 10.09874345 0 10 C0 6.7 0 3.4 0 0 Z " fill="#111111" transform="translate(2629,262)"/>
<path d="M0 0 C36.84985277 -0.04577169 73.69970043 -0.08109454 110.54957597 -0.10213066 C114.91472387 -0.10463163 119.27987171 -0.10722032 123.64501953 -0.10986328 C124.51392497 -0.1103879 125.3828304 -0.11091252 126.27806631 -0.11145304 C140.28828846 -0.12012048 154.29849394 -0.13586993 168.30870625 -0.15430559 C182.71875856 -0.17310714 197.12880222 -0.18413823 211.53886628 -0.18817699 C220.40769911 -0.19090095 229.27648481 -0.19945654 238.1453031 -0.21583293 C244.25344388 -0.22652692 250.36156083 -0.22957307 256.46971026 -0.22700275 C259.97692267 -0.22574042 263.48405364 -0.22746555 266.99125099 -0.23841095 C290.04974031 -0.29959046 313.07428002 0.56397425 335.9375 3.75 C337.16146484 3.91773926 338.38542969 4.08547852 339.64648438 4.25830078 C377.16484414 9.62697656 415.4757549 19.35338944 449.71728516 35.90869141 C452.01965784 37.00939792 454.33908608 38.0621565 456.66796875 39.10546875 C476.77642758 48.19896997 495.25451141 59.93347464 513 73 C513.65436035 73.48178711 514.3087207 73.96357422 514.98291016 74.45996094 C524.61937503 81.63069186 533.39150207 89.63640955 542 98 C542.74926758 98.72735352 543.49853516 99.45470703 544.27050781 100.20410156 C553.02347305 108.73996142 561.61359215 117.23007902 569 127 C570.15986368 128.49371681 571.32005109 129.98718227 572.48046875 131.48046875 C612.85773068 183.88773127 634.65172458 248.22907952 639 314 C639.05639648 314.83724609 639.11279297 315.67449219 639.17089844 316.53710938 C644.70359718 402.76863883 622.85730614 490.09788563 568 558 C567.59088379 558.51208008 567.18176758 559.02416016 566.76025391 559.55175781 C559.99735324 567.9580044 552.53853337 575.66737153 544.9375 583.3125 C544.02774414 584.231521 543.11798828 585.15054199 542.18066406 586.09741211 C536.09383791 592.1563321 529.72811342 597.66762285 523 603 C521.83095555 603.95310919 520.66280709 604.90731993 519.49609375 605.86328125 C505.30823894 617.22443702 490.11062613 626.88457796 474.25244141 635.74023438 C472.82373789 636.53929249 471.39847466 637.34455883 469.97802734 638.15820312 C415.45961287 669.35874918 346.42133643 684.28324191 284.04116821 684.12025452 C282.20400271 684.12153615 282.20400271 684.12153615 280.32972276 684.12284368 C276.97506386 684.12419294 273.62046493 684.12111793 270.26581335 684.11606562 C266.63139704 684.1117084 262.99698227 684.11321125 259.36256409 684.1139679 C253.0805684 684.11448982 246.79858317 684.11137785 240.51659012 684.10573006 C231.43411381 684.09756986 222.35164251 684.09499522 213.26916294 684.09374207 C198.53002504 684.09155862 183.7908927 684.08491778 169.05175781 684.07543945 C154.74218778 684.06624699 140.43261927 684.05917514 126.12304688 684.05493164 C124.79785754 684.05453756 124.79785754 684.05453756 123.4458967 684.05413551 C119.01341643 684.05283038 114.58093615 684.05156669 110.14845586 684.05032361 C73.43229994 684.03997304 36.7161505 684.0222992 0 684 C0 680.7 0 677.4 0 674 C1.40580322 673.98018066 2.81160645 673.96036133 4.26000977 673.93994141 C9.54386411 673.86308389 14.82747134 673.77449955 20.11108398 673.68261719 C22.38512241 673.64465489 24.65921422 673.6097491 26.93334961 673.578125 C51.55392961 674.30922441 51.55392961 674.30922441 74 666 C80.54858992 659.11558495 81.14195192 648.62239639 81.57409477 639.53845596 C81.61481772 638.71550471 81.65554068 637.89255345 81.69749766 637.04466428 C82.1690713 626.55712187 82.13850801 616.06807427 82.12698364 605.57220459 C82.12813823 603.25818522 82.12972801 600.94416603 82.13171089 598.63014722 C82.13585795 592.32119108 82.13383455 586.01225021 82.13072467 579.70329404 C82.12868577 573.58210968 82.13136525 567.46092888 82.13387203 561.339745 C82.13911922 548.05842393 82.13868873 534.77710768 82.13579312 521.49578615 C82.13327114 509.87012777 82.13262384 498.24447116 82.13381577 486.61881256 C82.13389215 485.84571594 82.13396854 485.07261932 82.13404724 484.27609553 C82.13435861 481.13729159 82.13467701 477.99848765 82.135007 474.85968372 C82.138062 445.44951725 82.13529911 416.03935385 82.1299101 386.62918786 C82.12516684 360.54494521 82.12558801 334.46070745 82.13037109 308.37646484 C82.13573559 279.02390475 82.1378434 249.67134737 82.13475883 220.31878686 C82.13443815 217.18467474 82.13412531 214.05056262 82.13381577 210.9164505 C82.13369715 209.75903073 82.13369715 209.75903073 82.13357614 208.57822873 C82.13244254 196.96747309 82.13376172 185.35671942 82.13629532 173.74596405 C82.13916491 160.53014997 82.13841794 147.31434145 82.13301457 134.09852806 C82.13035116 127.36355695 82.12933729 120.62859693 82.13266373 113.89362526 C82.13566955 107.71399401 82.13396339 101.53438166 82.12868617 95.35475209 C82.1275801 93.13352597 82.12811232 90.9122982 82.13056196 88.69107315 C82.14181485 77.62839361 82.0232827 66.58594383 81.57409477 55.53136063 C81.53796822 54.59707577 81.50184166 53.66279092 81.46462036 52.7001944 C80.92837998 40.90763495 79.91593689 28.05351682 71.3125 19.25 C57.34314031 8.92935366 38.66137323 10.61795135 22.1875 10.375 C20.03058455 10.3367413 17.87368309 10.29768524 15.71679688 10.2578125 C10.47798059 10.16268137 5.23909314 10.07834277 0 10 C0 6.7 0 3.4 0 0 Z M144 19 C144.6222924 19.82254021 144.6222924 19.82254021 145.25715637 20.66169739 C145.79982651 21.38153305 146.34249664 22.10136871 146.90161133 22.84301758 C147.44022293 23.55637772 147.97883453 24.26973785 148.5337677 25.00471497 C159.18782234 39.50301498 158.43597568 56.51019569 158.38768005 73.62654114 C158.39185634 76.03524371 158.39733547 78.44394431 158.40399987 80.85264128 C158.41542583 86.0756463 158.41759727 91.29856938 158.41144943 96.52157974 C158.40233156 104.28873724 158.41041187 112.0558121 158.42174067 119.82296328 C158.44138067 133.6986455 158.44376009 147.57429031 158.43854547 161.44998312 C158.43398371 173.59488709 158.4345932 185.73977629 158.44038582 197.88467979 C158.44114269 199.5154172 158.44189867 201.1461546 158.44265376 202.776892 C158.44379899 205.23444137 158.44494887 207.69199074 158.44611301 210.1495401 C158.45681407 232.99007698 158.46154733 255.83060895 158.45364285 278.67114735 C158.45319709 279.96194038 158.45319709 279.96194038 158.45274232 281.27881004 C158.45029353 288.26636011 158.44768187 295.25391013 158.44505819 302.24146014 C158.43495724 329.49278394 158.44330988 356.74404612 158.46655273 383.99536133 C158.49264165 414.63293362 158.50546887 445.27046881 158.49836498 475.90805262 C158.49764895 479.17665938 158.49697456 482.44526614 158.49632454 485.71387291 C158.49615473 486.51864952 158.49598492 487.32342613 158.49580997 488.1525899 C158.4935098 500.2854902 158.50147051 512.41835599 158.51461601 524.55124855 C158.52954484 538.35446238 158.53034692 552.15759547 158.5125451 565.9608076 C158.50300091 573.67827966 158.5043783 581.39556328 158.52177979 589.11302265 C158.53354656 594.88583548 158.52424729 600.65846521 158.50695742 606.43125709 C158.50319797 608.75886239 158.50611768 611.0864906 158.51656907 613.41407547 C158.58982286 630.98401902 157.98401282 646.42260944 147 661 C145.9998053 662.33318728 144.99977599 663.66649869 144 665 C159.87567165 665.0708246 175.75129901 665.12334076 191.62709045 665.15543652 C199.00242467 665.17075089 206.37765944 665.19153516 213.75292969 665.22631836 C220.19895923 665.25670396 226.64491662 665.27568617 233.09101582 665.28226548 C236.48812932 665.28609698 239.88487655 665.29646137 243.2819519 665.31719017 C313.7713992 665.72937979 390.44114729 651.70563907 447 607 C447.84175781 606.36707031 448.68351562 605.73414063 449.55078125 605.08203125 C454.47430266 601.36600559 459.05693968 597.33611974 463.60546875 593.171875 C465.65774709 591.31042841 467.75037828 589.5271163 469.875 587.75 C479.84721525 579.02431165 488.18726582 568.64877032 496 558 C496.62519531 557.14792969 497.25039063 556.29585937 497.89453125 555.41796875 C502.61178239 548.82659526 506.81814664 541.93921085 511 535 C511.56460937 534.10152344 512.12921875 533.20304688 512.7109375 532.27734375 C534.45833232 496.79743905 545.25499058 453.65085418 551.25 412.875 C551.40098145 411.86622803 551.55196289 410.85745605 551.70751953 409.81811523 C554.69333629 388.18188389 555.37847767 366.438844 555.3125 344.625 C555.31067719 343.36407532 555.30885437 342.10315063 555.30697632 340.80401611 C555.25676907 320.07578362 554.61952646 299.57032709 552 279 C551.91278687 278.31347351 551.82557373 277.62694702 551.73571777 276.9196167 C549.34105349 258.35424795 545.91787882 240.07267372 541 222 C540.74524902 221.05431152 540.49049805 220.10862305 540.22802734 219.13427734 C531.28919827 186.52296302 517.18435524 155.19718245 497 128 C496.28481201 127.03247803 496.28481201 127.03247803 495.55517578 126.04541016 C488.93485284 117.17274073 481.66941269 108.97446059 474 101 C473.53062012 100.50870605 473.06124023 100.01741211 472.57763672 99.51123047 C466.1251533 92.78753934 459.37595463 86.69168153 452 81 C451.46987305 80.58814453 450.93974609 80.17628906 450.39355469 79.75195312 C426.79371804 61.53501595 400.38241029 47.20582389 372 38 C371.02434082 37.6807959 370.04868164 37.3615918 369.04345703 37.03271484 C340.34707508 27.7742463 310.98988757 22.5975401 281 20 C280.06307816 19.91215744 279.12615631 19.82431488 278.1608429 19.73381042 C264.7443903 18.64478933 251.29775919 18.87500736 237.84765625 18.90234375 C235.13382494 18.90477349 232.41999368 18.90568322 229.7061615 18.90663147 C223.33177854 18.90971744 216.9574131 18.91789327 210.58303779 18.92798096 C203.31559971 18.9392279 196.04816071 18.94467399 188.78071606 18.94967639 C173.85380101 18.96007874 158.92690227 18.9776242 144 19 Z " fill="#111111" transform="translate(83,262)"/>
<path d="M0 0 C1.05823471 0.00303635 1.05823471 0.00303635 2.1378479 0.00613403 C3.24756454 0.00350555 3.24756454 0.00350555 4.37969971 0.00082397 C6.83686638 -0.00359453 9.29396168 -0.00065657 11.75112915 0.00271606 C13.45124322 0.00204302 15.1513572 0.001073 16.85147095 -0.00018311 C20.41926996 -0.00166008 23.98704398 0.00049445 27.55484009 0.00515747 C32.13851409 0.01085476 36.72212954 0.00757575 41.30580139 0.00158501 C44.81782476 -0.00202063 48.32983414 -0.00088201 51.84185791 0.0017128 C53.53243008 0.00238206 55.22300351 0.00155367 56.91357422 -0.00076675 C59.27222072 -0.00329332 61.6307711 0.00054735 63.9894104 0.00613403 C64.69490021 0.0041098 65.40039001 0.00208557 66.1272583 0 C70.94936644 0.02126585 70.94936644 0.02126585 72.06362915 1.13552856 C72.18621596 3.03391623 72.24352029 4.9365654 72.27456665 6.83865356 C72.30075073 8.03667603 72.32693481 9.23469849 72.35391235 10.46902466 C72.3818689 11.76147095 72.40982544 13.05391724 72.43862915 14.38552856 C72.6989813 23.48057124 73.08399924 32.49142738 74.37612915 41.51052856 C74.48167114 42.27268677 74.58721313 43.03484497 74.69595337 43.82009888 C76.82202998 57.41649007 81.28369961 69.7938222 86.65655518 82.38259888 C88.1828401 85.95985976 89.68658769 89.54646663 91.19166565 93.13269043 C91.97897279 95.00861587 92.76727978 96.88412199 93.55656433 98.75921631 C97.5882193 108.34780139 101.48944353 117.98748265 105.37612915 127.63552856 C106.79463212 131.15146376 108.21413223 134.66699576 109.63394165 138.18240356 C110.17163177 139.51397743 110.17163177 139.51397743 110.72018433 140.87245178 C115.03653332 151.55460601 119.3937525 162.22006014 123.75112915 172.88552856 C125.44257409 177.02613776 127.13397647 181.16676434 128.8253479 185.30740356 C129.25175064 186.35122192 129.67815338 187.39504028 130.11747742 188.4704895 C135.10786084 200.68877414 140.08552926 212.91223546 145.06362915 225.13552856 C152.0565737 242.3050803 159.05574927 259.47206739 166.06362915 276.63552856 C173.53766329 294.9406789 181.00089007 313.25021012 188.45913696 331.5617981 C194.98718802 347.589147 201.52190347 363.61375642 208.06362915 379.63552856 C215.0715091 396.79898991 222.07050862 413.9660484 229.06362915 431.13552856 C238.56327992 454.45858381 248.0765055 477.77607415 257.59585571 501.09109497 C260.50052385 508.20541664 263.40450058 515.32002046 266.30827332 522.43470764 C268.38812744 527.53066059 270.46817897 532.62653271 272.54873657 537.72219849 C276.80709415 548.15233878 281.06152825 558.58405698 285.3097229 569.01834106 C290.21435431 581.06286814 295.12901943 593.10324938 300.06362915 605.13552856 C300.40218933 605.96107239 300.74074951 606.78661621 301.08956909 607.63717651 C313.62039889 644.73171072 313.62039889 644.73171072 340.18862915 670.51052856 C346.46141808 672.87567849 352.80990101 673.33242963 359.43862915 673.69802856 C360.17468384 673.74121216 360.91073853 673.78439575 361.6690979 673.82888794 C363.46710983 673.93396656 365.26534873 674.03514949 367.06362915 674.13552856 C367.06362915 677.43552856 367.06362915 680.73552856 367.06362915 684.13552856 C343.22066522 684.15885484 319.37770299 684.1765064 295.53472996 684.18734074 C284.46485069 684.19250427 273.39497849 684.19954806 262.32510376 684.21096802 C252.68031861 684.2209131 243.03553858 684.22738157 233.39074844 684.22961706 C228.28056354 684.23092447 223.1703933 684.2340122 218.06021309 684.24125862 C213.25620356 684.24801607 208.45221482 684.25014609 203.64820099 684.24863625 C201.87964452 684.2489127 200.1110874 684.25091945 198.34253502 684.25473404 C195.93875442 684.259667 193.53505358 684.25852834 191.13127136 684.25578308 C190.42214067 684.25869592 189.71300997 684.26160876 188.98239046 684.26460987 C184.17775036 684.24964978 184.17775036 684.24964978 183.06362915 683.13552856 C183.06362915 680.16552856 183.06362915 677.19552856 183.06362915 674.13552856 C206.49362915 673.80552856 229.92362915 673.47552856 254.06362915 673.13552856 C251.42362915 670.82552856 248.78362915 668.51552856 246.06362915 666.13552856 C234.68362581 651.14000333 227.8962036 632.31620647 220.93862915 615.01052856 C220.07390856 612.87410552 219.20849484 610.73796291 218.34243774 608.6020813 C216.51807745 604.10089142 214.69692328 599.59842405 212.87808228 595.09500122 C208.63100882 584.58510289 204.35032342 574.08889125 200.07150269 563.59188843 C198.74720448 560.34178463 197.4244602 557.09105316 196.10220337 553.84011841 C188.80701087 535.91705255 181.43168376 518.02937548 174.06362915 500.13552856 C50.97362915 499.80552856 -72.11637085 499.47552856 -198.93637085 499.13552856 C-200.42137085 503.59052856 -200.42137085 503.59052856 -201.93637085 508.13552856 C-203.01494496 510.72617619 -204.11310877 513.28190016 -205.27230835 515.83474731 C-205.58761002 516.53890778 -205.90291168 517.24306824 -206.22776794 517.96856689 C-206.90195108 519.47339678 -207.577963 520.9774085 -208.25567627 522.48065186 C-210.0739625 526.51506806 -211.87739035 530.55612568 -213.6824646 534.59646606 C-214.04677078 535.41103775 -214.41107697 536.22560944 -214.78642273 537.06486511 C-218.56343515 545.51904212 -222.24500808 554.01266121 -225.91244507 562.5149231 C-226.43467651 563.72519165 -226.95690796 564.93546021 -227.4949646 566.18240356 C-227.76107544 566.79916962 -228.02718628 567.41593567 -228.30136108 568.0513916 C-230.63219486 573.44652101 -232.98793311 578.83061244 -235.3465271 584.21365356 C-236.11487354 585.96909033 -236.88318405 587.72454282 -237.65145874 589.48001099 C-238.77881176 592.05581392 -239.90700847 594.63122551 -241.03839111 597.20526123 C-253.08123157 622.08264836 -253.08123157 622.08264836 -253.1824646 648.97537231 C-252.23517047 651.14857649 -251.17919256 653.11920243 -249.93637085 655.13552856 C-249.40012085 656.16677856 -248.86387085 657.19802856 -248.31137085 658.26052856 C-240.47280586 667.74931776 -229.2731226 671.484319 -217.35375977 672.91836548 C-212.50623846 673.35383644 -207.64416697 673.37777469 -202.78012085 673.45193481 C-201.63724609 673.47271591 -200.49437134 673.49349701 -199.31686401 673.51490784 C-195.69009018 673.57994198 -192.06324807 673.63907256 -188.43637085 673.69802856 C-185.96761398 673.74125771 -183.49886384 673.78487337 -181.03012085 673.82888794 C-174.99893963 673.93557572 -168.96769019 674.03697138 -162.93637085 674.13552856 C-162.93637085 677.43552856 -162.93637085 680.73552856 -162.93637085 684.13552856 C-220.68637085 684.13552856 -278.43637085 684.13552856 -337.93637085 684.13552856 C-337.93637085 680.83552856 -337.93637085 677.53552856 -337.93637085 674.13552856 C-336.62023804 674.10974731 -335.30410522 674.08396606 -333.9480896 674.05740356 C-319.14301356 673.63887058 -307.81140037 672.11429446 -296.93637085 661.13552856 C-278.12684478 639.23651512 -268.19365261 609.33034593 -256.93637085 583.13552856 C-256.18295341 581.38422625 -255.42953545 579.63292417 -254.67611694 577.88162231 C-251.31819693 570.07165951 -247.96985032 562.25763339 -244.6290741 554.44032288 C-239.61263883 542.70203095 -234.5629322 530.97834546 -229.49887085 519.26052856 C-229.10531403 518.34975555 -228.7117572 517.43898254 -228.30627441 516.50061035 C-226.31368785 511.88951007 -224.32070002 507.2785834 -222.32748413 502.66775513 C-218.75685591 494.40738733 -215.19000346 486.14538911 -211.62286377 477.8835144 C-209.64418724 473.30078577 -207.66526671 468.7181625 -205.68637085 464.13552856 C-204.89470301 462.30219574 -204.10303635 460.4688624 -203.31137085 458.63552856 C-195.39470418 440.30219523 -187.47803752 421.9688619 -179.56137085 403.63552856 C-179.16947067 402.72796814 -178.7775705 401.82040771 -178.37379456 400.88534546 C-177.58238844 399.05261978 -176.79097609 397.2198968 -175.9995575 395.38717651 C-174.01635323 390.79456809 -172.03325841 386.20191246 -170.05038452 381.60916138 C-166.53615898 373.46976187 -163.02131951 365.33063206 -159.50213623 357.19337463 C-149.84163062 334.85550816 -140.23172649 312.49656907 -130.65600586 290.1222229 C-122.83059511 271.8421331 -114.94051015 253.59106842 -107.01022339 235.35626221 C-99.08721083 217.13472142 -91.2432885 198.88027429 -83.42913818 180.61181641 C-75.61340656 162.3430051 -67.73072036 144.10430694 -59.80697632 125.8821106 C-52.96861103 110.15363808 -46.18012423 94.40478758 -39.43637085 78.63552856 C-32.24415572 61.82264995 -25.01902039 45.02429009 -17.74960327 28.24465942 C-16.71183265 25.84869455 -15.67487892 23.45237567 -14.63876343 21.05569458 C-13.20391526 17.73750636 -11.76594304 14.42069089 -10.32699585 11.10427856 C-9.8957843 10.10581909 -9.46457275 9.10735962 -9.02029419 8.0786438 C-8.626828 7.17380249 -8.23336182 6.26896118 -7.82797241 5.33670044 C-7.4849408 4.54517578 -7.14190918 3.75365112 -6.78848267 2.93814087 C-5.17046252 -0.48472333 -3.62135048 0.01597042 0 0 Z M-6.93637085 48.13552856 C-7.18129272 49.2892395 -7.4262146 50.44295044 -7.67855835 51.63162231 C-13.64353353 78.25164434 -26.15674356 102.91325047 -37.19816589 127.72154236 C-41.49794985 137.3868091 -45.75146608 147.07215631 -49.99887085 156.76052856 C-50.74426332 158.45976935 -51.48970609 160.15898808 -52.23519897 161.85818481 C-53.72452409 165.25294073 -55.21359453 168.64780818 -56.70248413 172.04275513 C-60.06959307 179.71980034 -63.4401228 187.39534379 -66.81036377 195.0710144 C-68.68583664 199.3424589 -70.56109289 203.6139985 -72.43637085 207.88552856 C-73.18636981 209.59386235 -73.93636981 211.30219569 -74.68637085 213.01052856 C-75.05762085 213.85615356 -75.42887085 214.70177856 -75.81137085 215.57302856 C-100.93637085 272.80219523 -126.06137085 330.0313619 -151.18637085 387.26052856 C-151.55756546 388.10603271 -151.92876007 388.95153687 -152.311203 389.82266235 C-153.06174668 391.53222333 -153.81230619 393.24177736 -154.56288147 394.95132446 C-156.42969249 399.20331824 -158.29623474 403.45542959 -160.16220093 407.70779419 C-163.63429559 415.61961567 -167.10892579 423.53029238 -170.59283447 431.43692017 C-172.21463665 435.11798829 -173.83495427 438.79970906 -175.45516968 442.48147583 C-176.21810562 444.2140592 -176.98174571 445.94633271 -177.7461853 447.67825317 C-178.8153528 450.10069425 -179.88194131 452.52425746 -180.9480896 454.94802856 C-181.24849655 455.62684082 -181.5489035 456.30565308 -181.8584137 457.0050354 C-185.3652771 464.99196656 -188.61207084 473.06222855 -191.93637085 481.13552856 C-73.79637085 481.13552856 44.34362915 481.13552856 166.06362915 481.13552856 C163.70804954 473.99704564 163.70804954 473.99704564 161.06509399 467.00686646 C160.69910095 466.10041382 160.33310791 465.19396118 159.95602417 464.26004028 C159.56614319 463.30242798 159.17626221 462.34481567 158.77456665 461.35818481 C158.35890442 460.33088257 157.94324219 459.30358032 157.51498413 458.24514771 C156.15878192 454.89505506 154.79872733 451.54654116 153.43862915 448.19802856 C152.48899003 445.85430155 151.53961153 443.51046892 150.59048462 441.16653442 C148.66694369 436.41733815 146.74192503 431.6687453 144.81558228 426.92068481 C142.34777392 420.83750937 139.88419515 414.75263393 137.42300415 408.66677856 C128.31662238 386.15092899 119.19101849 363.64286853 110.06362915 341.13552856 C107.60513351 335.07309437 105.14674701 329.01061595 102.68862915 322.94802856 C102.38229553 322.19250702 102.07596191 321.43698547 101.76034546 320.65856934 C96.32860291 307.26142172 90.90408288 293.86135631 85.48117065 280.46063232 C80.51300762 268.18383111 75.54070923 255.90871736 70.56362915 243.63552856 C65.26733882 230.57489842 59.97599655 217.5122736 54.68862915 204.44802856 C54.3351239 203.57457794 53.98161865 202.70112732 53.61740112 201.8012085 C50.73820911 194.68709637 47.85928823 187.57287452 44.9803772 180.45864868 C42.82310138 175.12772098 40.66570345 169.79684273 38.50820923 164.46600342 C37.44254811 161.83271246 36.37710145 159.19933481 35.31167603 156.56594849 C31.89688605 148.12688142 28.47775816 139.68961995 25.04800415 131.25662231 C21.65751538 122.91983814 18.27995306 114.57790455 14.91116333 106.23233032 C14.07503442 104.16374522 13.23617845 102.09628538 12.39663696 100.02908325 C10.85715316 96.23591139 9.33442438 92.43623175 7.81362915 88.63552856 C7.37164185 87.5509436 6.92965454 86.46635864 6.47427368 85.34890747 C2.5438057 75.45069702 -0.12555302 65.48703015 -0.62387085 54.82302856 C-0.68961304 53.54814575 -0.75535522 52.27326294 -0.8230896 50.95974731 C-0.86047241 50.02775513 -0.89785522 49.09576294 -0.93637085 48.13552856 C-2.91637085 48.13552856 -4.89637085 48.13552856 -6.93637085 48.13552856 Z " fill="#111111" transform="translate(1109.9363708496094,261.8644714355469)"/>
<path d="M0 0 C1.85625 0.0309375 1.85625 0.0309375 3.75 0.0625 C7.59018226 57.42937487 11.38939479 114.79881943 15.13264632 172.17210305 C15.23013337 173.66629558 15.23013337 173.66629558 15.32958984 175.19067383 C15.39465107 176.18787504 15.4597123 177.18507625 15.52674508 178.21249568 C16.06997622 186.53652554 16.61494017 194.86044142 17.1601814 203.18433982 C17.69647495 211.37292656 18.23153319 219.56159341 18.76562655 227.75032395 C19.07999313 232.56982469 19.39486011 237.38929137 19.7110405 242.20867348 C20.00309708 246.66085712 20.2936237 251.11313792 20.58294296 255.56550026 C20.6888081 257.19058382 20.79522813 258.81563134 20.90224457 260.4406395 C21.04793332 262.654164 21.19162286 264.86780956 21.33480835 267.08149719 C21.41550756 268.31687383 21.49620678 269.55225046 21.57935143 270.82506275 C21.72391632 273.56765687 21.75 276.31609845 21.75 279.0625 C15.15 279.0625 8.55 279.0625 1.75 279.0625 C0.85347068 275.47638272 0.51316657 272.4613683 0.31689453 268.79125977 C0.24657013 267.51795303 0.17624573 266.2446463 0.10379028 264.93275452 C0.06794956 264.25314226 0.03210884 263.57353001 -0.00481796 262.87332344 C-0.11896106 260.72045483 -0.23885221 258.56797566 -0.36038208 256.41551208 C-0.70526188 250.2949599 -1.04283152 244.17403532 -1.36962891 238.05249023 C-3.88879715 191.05824343 -10.32569869 148.65460415 -45.953125 114.46875 C-79.00130462 85.29773112 -126.83471117 76.81409652 -169.49755859 76.94897461 C-171.35868034 76.94875557 -171.35868034 76.94875557 -173.25740051 76.9485321 C-176.60979545 76.94910308 -179.96212625 76.95406465 -183.31450987 76.96110606 C-186.83651249 76.96742305 -190.35851627 76.96794992 -193.88052368 76.96913147 C-200.52764253 76.97222046 -207.17474462 76.98040055 -213.82185614 76.99048096 C-221.39881786 77.00171828 -228.97578044 77.00717161 -236.55274844 77.01217639 C-252.11850861 77.02258562 -267.68425213 77.0401372 -283.25 77.0625 C-282.77169739 77.66627975 -282.29339478 78.27005951 -281.80059814 78.89213562 C-281.17191833 79.6917421 -280.54323853 80.49134857 -279.89550781 81.31518555 C-279.2728302 82.1045903 -278.65015259 82.89399506 -278.00860596 83.70732117 C-275.6057926 86.92524223 -273.74819879 90.26936833 -272 93.875 C-271.66282959 94.56295654 -271.32565918 95.25091309 -270.97827148 95.9597168 C-264.73095153 109.12540477 -264.09046951 122.72815615 -264.12974548 137.09111023 C-264.12846385 138.83255089 -264.12846385 138.83255089 -264.12715632 140.60917217 C-264.12580355 143.79957857 -264.1288922 146.98994343 -264.13393438 150.18034494 C-264.13828104 153.6328082 -264.13678948 157.08526976 -264.1360321 160.53773499 C-264.13550953 166.50875486 -264.13862844 172.47976375 -264.14426994 178.45078087 C-264.15242112 187.08370885 -264.15500386 195.71663156 -264.15625793 204.34956298 C-264.15844278 218.35828913 -264.16508746 232.36700944 -264.17456055 246.37573242 C-264.18374936 259.97827119 -264.190823 273.58080836 -264.19506836 287.18334961 C-264.19533108 288.0227924 -264.19559381 288.8622352 -264.19586449 289.72711565 C-264.19716959 293.93864676 -264.19843329 298.15017787 -264.19967639 302.361709 C-264.21003133 337.26197683 -264.22763418 372.16223788 -264.25 407.0625 C-257.3711261 406.96858048 -250.49255028 406.86111435 -243.61401367 406.74511719 C-241.28398184 406.70731644 -238.95390126 406.67238811 -236.6237793 406.640625 C-218.31503802 406.38814505 -199.73398996 406.08079117 -181.75 402.25 C-180.93088135 402.07968262 -180.1117627 401.90936523 -179.26782227 401.73388672 C-158.63055489 397.22449463 -139.92296991 386.61552681 -128.08203125 368.80078125 C-115.96052786 348.98959383 -113.20561576 327.13602403 -112.98963928 304.33671188 C-112.96829486 302.10075911 -112.94131527 299.86493313 -112.91296387 297.62905884 C-112.8437855 292.09017456 -112.78345961 286.55120237 -112.72393799 281.01220703 C-112.67307999 276.3005518 -112.61836507 271.58897487 -112.55812073 266.87742996 C-112.53153506 264.67208403 -112.51074805 262.46673048 -112.4901123 260.26132202 C-112.47352392 258.92209507 -112.4566534 257.58287158 -112.43945312 256.24365234 C-112.42692505 255.07103851 -112.41439697 253.89842468 -112.40148926 252.6902771 C-112.25 250.0625 -112.25 250.0625 -111.25 249.0625 C-107.95 249.0625 -104.65 249.0625 -101.25 249.0625 C-101.25 353.6725 -101.25 458.2825 -101.25 566.0625 C-104.55 566.0625 -107.85 566.0625 -111.25 566.0625 C-112.78111095 564.53138905 -112.39699476 563.1308892 -112.42358398 560.99609375 C-112.43707382 560.13008545 -112.45056366 559.26407715 -112.46446228 558.37182617 C-112.48011986 556.95027222 -112.48011986 556.95027222 -112.49609375 555.5 C-112.5291037 553.48437183 -112.56231384 551.46874692 -112.59570312 549.453125 C-112.64259071 546.28323304 -112.68685924 543.11334656 -112.72680664 539.94335938 C-113.14094317 508.61777456 -116.32751862 479.35336604 -138.79296875 455.43359375 C-166.9349539 428.27590697 -206.63824308 426.24609839 -243.5625 425.5 C-245.57487686 425.45670739 -247.58724676 425.41309009 -249.59960938 425.36914062 C-254.48300081 425.26318589 -259.3664652 425.16161762 -264.25 425.0625 C-264.19107331 460.40123949 -264.11648969 495.73990968 -264.02101372 531.07856946 C-264.00974604 535.2540395 -263.99860751 539.42950987 -263.98754883 543.60498047 C-263.9842433 544.85183116 -263.9842433 544.85183116 -263.980871 546.12387076 C-263.94553338 559.56936256 -263.92064931 573.01485431 -263.89965298 586.46037528 C-263.87786273 600.26470178 -263.84478176 614.0689682 -263.80129844 627.87324357 C-263.77483719 636.38588442 -263.75710116 644.89845047 -263.75065396 653.4111304 C-263.74538312 659.25475348 -263.72910948 665.09828257 -263.70433434 670.94185522 C-263.69037701 674.30942178 -263.68276222 677.6766777 -263.68499184 681.04429436 C-263.68665015 684.7055669 -263.66989663 688.36632506 -263.64872742 692.02752686 C-263.65357499 693.07814733 -263.65842257 694.12876781 -263.66341704 695.21122527 C-263.57495376 704.52627996 -262.22581985 713.07990688 -257.25 721.0625 C-256.92 722.0525 -256.59 723.0425 -256.25 724.0625 C-252.98719674 725.65119478 -249.55013314 726.64104442 -246.0625 727.625 C-244.77279297 727.99818359 -244.77279297 727.99818359 -243.45703125 728.37890625 C-233.20108993 730.56500824 -222.64721511 730.27406837 -212.2109375 730.37890625 C-210.47644601 730.3995145 -208.74195911 730.42051188 -207.00747681 730.44187927 C-202.4735285 730.49670065 -197.93953792 730.54628361 -193.40551758 730.59472656 C-188.76640118 730.64523586 -184.12734509 730.70076728 -179.48828125 730.75585938 C-170.40890586 730.8629514 -161.32947779 730.96450211 -152.25 731.0625 C-152.25 734.3625 -152.25 737.6625 -152.25 741.0625 C-186.88416941 741.08528941 -221.5183369 741.10299768 -256.15251219 741.11356533 C-260.23701009 741.11481611 -264.32150798 741.11611042 -268.40600586 741.11743164 C-269.21919077 741.11769395 -270.03237567 741.11795626 -270.87020255 741.11822652 C-284.05477673 741.12258343 -297.23934658 741.1304711 -310.42391818 741.1396528 C-323.94226108 741.14898875 -337.4606017 741.15455549 -350.9789477 741.15658849 C-359.32731829 741.15796384 -367.67567663 741.16231508 -376.02404345 741.17041647 C-381.74092429 741.17568321 -387.45779874 741.17730446 -393.17468183 741.17600138 C-396.47802503 741.17535788 -399.78134204 741.17691521 -403.08468246 741.18170547 C-406.65766372 741.18663533 -410.23059127 741.18550092 -413.80357361 741.18275452 C-414.8589987 741.18566736 -415.9144238 741.1885802 -417.00183147 741.19158131 C-418.42604344 741.18859474 -418.42604344 741.18859474 -419.87902737 741.18554783 C-421.11786494 741.18611741 -421.11786494 741.18611741 -422.38172954 741.1866985 C-424.25 741.0625 -424.25 741.0625 -425.25 740.0625 C-425.32179964 738.54321962 -425.33392007 737.02082518 -425.3125 735.5 C-425.30347656 734.67371094 -425.29445313 733.84742188 -425.28515625 732.99609375 C-425.27355469 732.35800781 -425.26195313 731.71992187 -425.25 731.0625 C-424.66943344 731.05441315 -424.08886688 731.04632629 -423.4907074 731.03799438 C-417.3732444 730.95102172 -411.25607163 730.85149492 -405.13891602 730.74511719 C-402.86487759 730.70715489 -400.59078578 730.6722491 -398.31665039 730.640625 C-372.64818571 731.64774893 -372.64818571 731.64774893 -349.63671875 722.66796875 C-343.72747377 715.50366289 -343.10943539 705.51857168 -342.67981148 696.62384415 C-342.63880654 695.80108164 -342.59780161 694.97831913 -342.5555541 694.13062443 C-342.07613292 683.53424993 -342.11154155 672.93587517 -342.12301636 662.33099365 C-342.12186183 659.98397588 -342.12027208 657.63695829 -342.11828911 655.28994107 C-342.11414127 648.88977242 -342.11616582 642.48961881 -342.11927533 636.08945012 C-342.12180718 629.88017 -342.11863492 623.67089129 -342.11612797 617.46161159 C-342.11088033 603.98886473 -342.11131145 590.51612263 -342.11420688 577.04337533 C-342.1167287 565.25020188 -342.11737623 553.45703017 -342.11618423 541.66385651 C-342.11610785 540.87966911 -342.11603146 540.09548171 -342.11595276 539.28753106 C-342.11564139 536.10371155 -342.11532299 532.91989203 -342.114993 529.73607252 C-342.1119379 499.90320735 -342.11470106 470.0703452 -342.1200899 440.2374805 C-342.1248332 413.77729658 -342.12441198 387.31711747 -342.11962891 360.85693359 C-342.11426463 331.08247181 -342.11215647 301.3080127 -342.11524117 271.5335505 C-342.11556185 268.35450252 -342.11587469 265.17545454 -342.11618423 261.99640656 C-342.11630285 260.82238897 -342.11630285 260.82238897 -342.11642386 259.62465387 C-342.11755755 247.84644565 -342.11623812 236.06823938 -342.11370468 224.29003143 C-342.11083535 210.88390881 -342.11158153 197.47779167 -342.11698543 184.07166973 C-342.11964918 177.23948591 -342.12066214 170.40731241 -342.11733627 163.57512856 C-342.11433114 157.3066771 -342.11603552 151.03824429 -342.12131383 144.76979449 C-342.12242019 142.5162671 -342.12188702 140.26273809 -342.11943804 138.00921175 C-342.1082392 126.83685671 -342.22382937 115.68444616 -342.67590523 104.52019119 C-342.71203178 103.57971461 -342.74815834 102.63923802 -342.78537964 101.67026214 C-343.42440957 87.24464812 -343.42440957 87.24464812 -350.25 75.0625 C-364.11069751 65.19368337 -385.06416636 67.65697395 -401.1875 67.4375 C-403.52800796 67.39923468 -405.86850313 67.36017829 -408.20898438 67.3203125 C-413.88920772 67.22525911 -419.56951081 67.13995354 -425.25 67.0625 C-425.27689216 65.58343108 -425.29634621 64.10422517 -425.3125 62.625 C-425.32990234 61.38943359 -425.32990234 61.38943359 -425.34765625 60.12890625 C-425.25 58.0625 -425.25 58.0625 -424.25 57.0625 C-422.100521 56.9617553 -419.94765966 56.93325097 -417.79582214 56.93107224 C-416.7673838 56.92799328 -416.7673838 56.92799328 -415.71816891 56.92485213 C-413.3917663 56.91914112 -411.06542212 56.9206444 -408.73901367 56.92205811 C-407.0657704 56.91947679 -405.39252775 56.91646429 -403.71928596 56.9130547 C-399.09847722 56.90495354 -394.47768399 56.9031934 -389.85686898 56.90245724 C-384.88188523 56.900612 -379.90690962 56.89306721 -374.93193054 56.88632202 C-364.04123802 56.87271453 -353.15054916 56.8667098 -342.25984955 56.86231136 C-335.46239646 56.85955216 -328.6649448 56.85531532 -321.86749268 56.85080719 C-303.05684498 56.83860975 -284.24619844 56.82831243 -265.43554688 56.8249321 C-264.23052828 56.82471253 -263.02550968 56.82449297 -261.78397536 56.82426675 C-260.57601876 56.82404847 -259.36806217 56.82383019 -258.12350082 56.8236053 C-255.6755956 56.82316183 -253.22769038 56.82271527 -250.77978516 56.82226562 C-248.95840428 56.82193348 -248.95840428 56.82193348 -247.10022783 56.82159463 C-227.43194762 56.817648 -207.76370449 56.80020023 -188.0954386 56.7769061 C-167.91447054 56.75319731 -147.73352109 56.74073041 -127.55253887 56.73956418 C-116.21692068 56.73864698 -104.88135076 56.73288364 -93.54574585 56.71474457 C-83.89077755 56.69934974 -74.23587241 56.69421936 -64.58089417 56.70248267 C-59.6542764 56.70639179 -54.72778585 56.70544685 -49.8011837 56.69142532 C-45.28934713 56.67870177 -40.77773358 56.67987039 -36.26589739 56.69201604 C-34.63522401 56.69397575 -33.00453491 56.69088192 -31.37388361 56.68217167 C-13.45495316 56.59253123 -13.45495316 56.59253123 -5.25 62.0625 C-6.24 41.9325 -7.23 21.8025 -8.25 1.0625 C-5.12110801 0.280277 -3.1099909 -0.05183318 0 0 Z " fill="#111111" transform="translate(2517.25,204.9375)"/>
<path d="M0 0 C0.89798405 2.69395214 1.20652688 4.62680849 1.38854313 7.42178822 C1.4497519 8.33177722 1.51096068 9.24176622 1.57402426 10.17933065 C1.63725754 11.1804709 1.70049082 12.18161115 1.76564026 13.21308899 C1.83591507 14.27566506 1.90618989 15.33824113 1.97859424 16.43301648 C2.21425319 20.01150083 2.44414557 23.59033255 2.67407227 27.16918945 C2.84137342 29.72818639 3.00901455 32.28716113 3.17697144 34.84611511 C3.58571678 41.08865504 3.99067224 47.33143088 4.39377064 53.5743377 C4.72178994 58.65337483 5.05133513 63.73231078 5.38197136 68.81117821 C5.42901701 69.53387426 5.47606266 70.25657032 5.52453394 71.00116625 C5.6201185 72.4694156 5.71570598 73.93766476 5.81129634 75.40591373 C6.70840609 89.18830851 7.60051184 102.97102378 8.49097138 116.75384959 C9.25382067 128.55955556 10.02115356 140.36496316 10.79174805 152.17016602 C11.68705505 165.88592943 12.57936915 179.60188247 13.4671101 193.31813782 C13.56201703 194.78437497 13.65692844 196.25061182 13.75184441 197.71684837 C13.79853929 198.43819033 13.84523418 199.15953229 13.89334406 199.90273309 C14.22127169 204.96531491 14.55132564 210.02775547 14.88223457 215.0901432 C15.328918 221.92455509 15.77077194 228.7592653 16.20946884 235.59419441 C16.37076424 238.09594496 16.53358174 240.59759793 16.69807625 243.09914017 C17.48554178 255.0879619 18.21486713 266.98058336 18 279 C11.4 279 4.8 279 -2 279 C-2.15819214 276.08293213 -2.15819214 276.08293213 -2.31958008 273.10693359 C-2.67540971 266.58472236 -3.03961655 260.06301817 -3.4091692 253.54157066 C-3.6323054 249.59875222 -3.85237222 245.65581893 -4.06469727 241.71240234 C-6.57505058 195.2056481 -11.43020747 150.00717555 -47 116 C-68.79535965 96.5501095 -97.00448295 85.82559808 -125.4375 80.75 C-126.28086914 80.59885742 -127.12423828 80.44771484 -127.99316406 80.29199219 C-147.26583366 77.11927103 -166.48461905 76.71478739 -185.97619653 76.79721212 C-189.50749408 76.80993649 -193.0387972 76.8109067 -196.57011414 76.81326294 C-203.22056587 76.81941528 -209.8709498 76.83573899 -216.52137202 76.85596192 C-224.10816211 76.8785186 -231.69495589 76.88936342 -239.2817713 76.89935279 C-254.85455311 76.92011281 -270.42726773 76.95516356 -286 77 C-285.46020508 77.72880371 -284.92041016 78.45760742 -284.36425781 79.20849609 C-283.65108398 80.17867676 -282.93791016 81.14885742 -282.203125 82.1484375 C-281.49833008 83.10411621 -280.79353516 84.05979492 -280.06738281 85.04443359 C-267.51797474 102.98528551 -267.40510792 122.42640885 -267.53573751 143.49058259 C-267.55322645 147.03700841 -267.54715089 150.58341066 -267.54412842 154.12986755 C-267.54204442 160.2547264 -267.5544528 166.37941305 -267.57707977 172.50422859 C-267.60977179 181.35934214 -267.62002424 190.21437356 -267.62503174 199.06954091 C-267.63375762 213.44102027 -267.66029919 227.81240813 -267.69824219 242.18383789 C-267.73503272 256.13337755 -267.76330988 270.08289224 -267.78027344 284.0324707 C-267.78132433 284.89423312 -267.78237523 285.75599554 -267.78345796 286.64387197 C-267.78867862 290.96765169 -267.79373333 295.29143159 -267.79870558 299.61521161 C-267.8400832 335.41020625 -267.91045724 371.20509464 -268 407 C-260.97871418 406.90612176 -253.95772168 406.79865815 -246.93676758 406.68261719 C-244.55823239 406.64480417 -242.1796492 406.60987747 -239.80102539 406.578125 C-205.01606561 406.10835555 -166.90248627 405.18007099 -140 380 C-113.26804695 352.21786308 -115.93117792 311.54615275 -115.47393799 275.90606689 C-115.41506703 271.32140495 -115.34913472 266.73688317 -115.28125 262.15234375 C-115.26767456 260.94529282 -115.25409912 259.73824188 -115.2401123 258.49461365 C-115.22339478 257.39158401 -115.20667725 256.28855438 -115.18945312 255.15209961 C-115.17692505 254.17824814 -115.16439697 253.20439667 -115.15148926 252.20103455 C-115 250 -115 250 -114 249 C-112.31391034 248.92794489 -110.62499341 248.91613932 -108.9375 248.9375 C-108.01839844 248.94652344 -107.09929687 248.95554687 -106.15234375 248.96484375 C-105.44207031 248.97644531 -104.73179687 248.98804688 -104 249 C-103.97713524 289.23950924 -103.9595026 329.47901764 -103.94893467 369.71853208 C-103.94768389 374.46396606 -103.94638958 379.20940003 -103.94506836 383.95483398 C-103.94467489 385.37199192 -103.94467489 385.37199192 -103.94427348 386.81777931 C-103.93991644 402.1363069 -103.93202871 417.45483076 -103.9228472 432.77335613 C-103.91351161 448.47940308 -103.90794459 464.18544806 -103.90591151 479.89149767 C-103.90453608 489.591084 -103.90018445 499.29065977 -103.89208353 508.99024285 C-103.88681723 515.63221397 -103.88519544 522.27417959 -103.88649862 528.91615265 C-103.88714219 532.7541638 -103.88612245 536.59215644 -103.88079453 540.43016434 C-103.87507382 544.58117635 -103.87699876 548.73214843 -103.87974548 552.88316345 C-103.87537622 554.72310368 -103.87537622 554.72310368 -103.87091869 556.60021442 C-103.87290974 557.70295847 -103.87490079 558.80570252 -103.87695217 559.94186306 C-103.87657245 560.90141633 -103.87619273 561.86096961 -103.8758015 562.84960026 C-104 565 -104 565 -105 566 C-106.49738124 566.0979057 -107.99942892 566.12974864 -109.5 566.125 C-110.3146875 566.12757813 -111.129375 566.13015625 -111.96875 566.1328125 C-114 566 -114 566 -115 565 C-115.1362665 562.37452207 -115.21117044 559.77197511 -115.24609375 557.14453125 C-115.2774112 555.48314786 -115.30908206 553.82177111 -115.34106445 552.16040039 C-115.35642242 551.28658722 -115.3717804 550.41277405 -115.38760376 549.51248169 C-116.01828132 515.38530388 -117.20256896 482.88228321 -141 456 C-170.51187154 428.47450443 -208.55166733 426.23265071 -246.7890625 425.44921875 C-248.85132365 425.40499053 -250.91357958 425.3605182 -252.97583008 425.3157959 C-257.98383098 425.20771649 -262.99189092 425.10293962 -268 425 C-267.91812019 459.39590268 -267.82590501 493.79176074 -267.71994839 528.18759758 C-267.70743045 532.25405246 -267.69499753 536.32050759 -267.68261719 540.38696289 C-267.68015119 541.19647545 -267.6776852 542.00598801 -267.67514448 542.84003126 C-267.6354878 555.92460272 -267.60270919 569.00918274 -267.57250018 582.09377903 C-267.54131803 595.53311455 -267.50268004 608.97241393 -267.45720994 622.41170877 C-267.42941499 630.69554092 -267.40734327 638.97934683 -267.39273749 647.26321291 C-267.38214488 652.9540593 -267.36426977 658.6448547 -267.34083296 664.33566255 C-267.32754811 667.61239546 -267.31840038 670.88904471 -267.31578636 674.16580582 C-268.48410531 699.2306237 -268.48410531 699.2306237 -260 722 C-248.70701484 732.40532694 -229.17119939 730.17365672 -214.9609375 730.31640625 C-213.22644601 730.3370145 -211.49195911 730.35801188 -209.75747681 730.37937927 C-205.2235285 730.43420065 -200.68953792 730.48378361 -196.15551758 730.53222656 C-191.51640118 730.58273586 -186.87734509 730.63826728 -182.23828125 730.69335938 C-173.15890586 730.8004514 -164.07947779 730.90200211 -155 731 C-155 734.3 -155 737.6 -155 741 C-244.76 741 -334.52 741 -427 741 C-427 737.7 -427 734.4 -427 731 C-425.59419678 730.98018066 -424.18839355 730.96036133 -422.73999023 730.93994141 C-417.45613589 730.86308389 -412.17252866 730.77449955 -406.88891602 730.68261719 C-404.61487759 730.64465489 -402.34078578 730.6097491 -400.06665039 730.578125 C-373.98338924 731.51321202 -373.98338924 731.51321202 -351.125 721.375 C-345.11097319 711.82331035 -344.84725635 700.67804357 -344.87136555 689.70550537 C-344.86873599 688.1818458 -344.86873599 688.1818458 -344.86605331 686.62740523 C-344.86139742 683.22001431 -344.86385778 679.81266613 -344.86628723 676.40527344 C-344.86441905 673.93901631 -344.86211831 671.47275947 -344.85942191 669.00650311 C-344.85457741 663.64227045 -344.85284955 658.27805022 -344.85387802 652.91381645 C-344.85540373 644.93656912 -344.8512394 636.95933177 -344.8460034 628.98208638 C-344.83633304 613.90384306 -344.83351925 598.82560313 -344.83294634 583.74735707 C-344.8324867 572.1005629 -344.83042786 560.45377006 -344.82724571 548.80697632 C-344.82634815 545.4537433 -344.82545834 542.10051028 -344.82457083 538.74727726 C-344.82434979 537.91363096 -344.82412874 537.07998466 -344.82390099 536.22107636 C-344.81774667 512.77146375 -344.81380043 489.32185161 -344.81424427 465.87223816 C-344.81425985 464.98813649 -344.81427543 464.10403481 -344.81429148 463.19314218 C-344.81437459 458.71222318 -344.81447363 454.23130417 -344.81457619 449.75038517 C-344.81459613 448.86047218 -344.81461608 447.9705592 -344.81463663 447.05367915 C-344.81467706 445.25405683 -344.81471886 443.4544345 -344.81476202 441.65481217 C-344.81537455 413.66586568 -344.80787235 385.67693131 -344.79418945 357.68798828 C-344.77881969 326.23558866 -344.7702238 294.783197 -344.77115268 263.33079338 C-344.7712273 259.97504552 -344.77127601 256.61929766 -344.77130699 253.2635498 C-344.77132447 252.02416525 -344.77132447 252.02416525 -344.77134231 250.75974263 C-344.77137305 237.47788187 -344.76499406 224.19603166 -344.75637473 210.91417403 C-344.74788634 197.55751513 -344.74691755 184.20087162 -344.75348405 170.84421152 C-344.75717202 162.91574527 -344.75536993 154.98732583 -344.74554171 147.05886457 C-344.73881379 141.12879626 -344.74261565 135.19876429 -344.75041493 129.26869631 C-344.75194935 126.87701083 -344.75013596 124.48532026 -344.74455485 122.0936408 C-343.51693298 96.50026201 -343.51693298 96.50026201 -353.5625 74.1875 C-363.1946978 66.9815485 -378.2783133 67.87062188 -389.6953125 67.68359375 C-390.76876923 67.66281265 -391.84222595 67.64203156 -392.94821167 67.62062073 C-396.34041625 67.55580872 -399.73269093 67.49656166 -403.125 67.4375 C-405.4401111 67.3942496 -407.75521539 67.35063336 -410.0703125 67.30664062 C-415.71347184 67.20019852 -421.35670091 67.09874345 -427 67 C-427 63.7 -427 60.4 -427 57 C-375.44822789 56.9313379 -323.8964604 56.87847324 -272.34465156 56.84680401 C-266.25890174 56.84305188 -260.17315202 56.83916891 -254.08740234 56.83520508 C-252.87583585 56.83441815 -251.66426936 56.83363122 -250.41598873 56.83282044 C-230.79682259 56.81976546 -211.17768281 56.79611109 -191.55853231 56.76854161 C-171.42844477 56.74049 -151.29837103 56.72382425 -131.16826475 56.71773452 C-118.74628257 56.71361758 -106.32437492 56.70061305 -93.90241568 56.6762506 C-85.38496168 56.66039645 -76.86754622 56.65559893 -68.35007854 56.65949587 C-63.4354919 56.6614179 -58.52103551 56.65846515 -53.60647202 56.64238358 C-49.10441745 56.62775953 -44.60258045 56.62706392 -40.10051577 56.63730332 C-38.47450304 56.63856841 -36.8484766 56.63478414 -35.22249074 56.62535045 C-18.4323329 56.5336257 -18.4323329 56.5336257 -11 60 C-10.34 60.66 -9.68 61.32 -9 62 C-8.84757982 51.40891457 -9.32418675 40.93855071 -10 30.375 C-10.6243222 20.57020834 -11.17161182 10.83192724 -11 1 C-7.2735915 -0.04702186 -3.86986958 -0.07442057 0 0 Z " fill="#111111" transform="translate(1984,205)"/>
</svg>
